<svg xmlns="http://www.w3.org/2000/svg" viewBox="0 0 400 600"><rect width="400" height="600" fill="#264c4b"/><defs><radialGradient id="glow"><stop stop-color="#f0c992" stop-opacity=".35"/><stop offset="1" stop-color="#264c4b" stop-opacity="0"/></radialGradient><linearGradient id="shade" x2="0" y2="1"><stop stop-color="#264c4b" stop-opacity="0"/><stop offset="1" stop-color="#0c1412"/></linearGradient></defs><circle cx="200" cy="260" r="250" fill="url(#glow)"/><circle cx="230" cy="172" r="87" fill="#f0c992" opacity=".8"/><path d="M0 330Q100 240 200 322T400 310V430H0Z" fill="#163330"/><path d="M82 314V259H312V314Z" fill="#f0c992" opacity=".6"/><rect x="98" y="270" width="23" height="22" fill="#264c4b"/><rect x="135" y="270" width="23" height="22" fill="#264c4b"/><rect x="172" y="270" width="23" height="22" fill="#264c4b"/><rect x="209" y="270" width="23" height="22" fill="#264c4b"/><rect x="246" y="270" width="23" height="22" fill="#264c4b"/><rect x="283" y="270" width="23" height="22" fill="#264c4b"/><path d="M0 338L400 326M0 349L400 337" stroke="#f0c992" opacity=".5"/><rect y="390" width="400" height="210" fill="url(#shade)"/><text x="30" y="490" fill="#f0c992" font-family="Helvetica,Arial,sans-serif" font-weight="700" font-size="29" letter-spacing="1">SPIRITED</text><text x="30" y="526" fill="#f0c992" font-family="Helvetica,Arial,sans-serif" font-weight="700" font-size="29" letter-spacing="1">AWAY</text><path d="M30 557H370" stroke="#f0c992" opacity=".35"/><text x="30" y="579" font-family="monospace" fill="#f0c992" opacity=".7" font-size="9" letter-spacing="3">VIDLY / THE CINEMA COLLECTION</text></svg>